<svg width="626" height="173" viewBox="0 0 626 173" fill="none" xmlns="http://www.w3.org/2000/svg">
<path d="M188.2 78C187.467 78 186.833 77.7333 186.3 77.2C185.767 76.6667 185.5 76.0333 185.5 75.3V10.7C185.5 9.96666 185.767 9.33333 186.3 8.8C186.833 8.26666 187.467 8 188.2 8H217.8C227.4 8 234.9 10.1667 240.3 14.5C245.7 18.7667 248.4 24.7 248.4 32.3C248.4 36.6333 247.433 40.4667 245.5 43.8C243.567 47.0667 240.933 49.7667 237.6 51.9L249.9 74.7C250.1 75.1 250.2 75.4667 250.2 75.8C250.2 76.4 249.967 76.9333 249.5 77.4C249.1 77.8 248.6 78 248 78H227.5C226.3 78 225.333 77.7333 224.6 77.2C223.933 76.6 223.467 75.9667 223.2 75.3L214.6 56.2H210.5V75.3C210.5 76.0333 210.233 76.6667 209.7 77.2C209.167 77.7333 208.533 78 207.8 78H188.2ZM217.8 37.2C219.267 37.2 220.4 36.7333 221.2 35.8C222 34.8 222.4 33.5667 222.4 32.1C222.4 30.6333 222 29.3667 221.2 28.3C220.467 27.1667 219.333 26.6 217.8 26.6H210.5V37.2H217.8ZM259.868 20.5C259.135 20.5 258.501 20.2333 257.968 19.7C257.435 19.1667 257.168 18.5333 257.168 17.8V5.7C257.168 4.96666 257.435 4.33333 257.968 3.8C258.501 3.26666 259.135 2.99999 259.868 2.99999H276.768C277.501 2.99999 278.135 3.26666 278.668 3.8C279.201 4.33333 279.468 4.96666 279.468 5.7V17.8C279.468 18.5333 279.201 19.1667 278.668 19.7C278.135 20.2333 277.501 20.5 276.768 20.5H259.868ZM259.368 78C258.635 78 258.001 77.7333 257.468 77.2C256.935 76.6667 256.668 76.0333 256.668 75.3V28.7C256.668 27.9667 256.935 27.3333 257.468 26.8C258.001 26.2667 258.635 26 259.368 26H277.268C278.001 26 278.635 26.2667 279.168 26.8C279.701 27.3333 279.968 27.9667 279.968 28.7V75.3C279.968 76.0333 279.701 76.6667 279.168 77.2C278.635 77.7333 278.001 78 277.268 78H259.368ZM315.492 79C310.359 79 305.692 78.1333 301.492 76.4C297.359 74.6 294.059 71.9667 291.592 68.5C289.126 65.0333 287.759 60.9 287.492 56.1L287.392 52.1L287.492 48C287.692 43.2 289.026 39.0667 291.492 35.6C294.026 32.1333 297.359 29.5 301.492 27.7C305.692 25.9 310.359 25 315.492 25C322.026 25 327.492 26.2 331.892 28.6C336.292 30.9333 339.526 33.6667 341.592 36.8C343.726 39.9333 344.792 42.5333 344.792 44.6C344.792 45.2667 344.526 45.8667 343.992 46.4C343.459 46.8667 342.826 47.1 342.092 47.1H322.592C321.326 47.1 320.359 46.4333 319.692 45.1C319.159 44.0333 318.626 43.2667 318.092 42.8C317.626 42.3333 316.926 42.1 315.992 42.1C314.526 42.1 313.492 42.6333 312.892 43.7C312.359 44.7667 312.059 46.3667 311.992 48.5L311.892 52.4L311.992 55.6C312.126 57.8667 312.459 59.5 312.992 60.5C313.526 61.4333 314.526 61.9 315.992 61.9C317.059 61.9 317.826 61.7 318.292 61.3C318.759 60.8333 319.226 60.0333 319.692 58.9C320.226 57.5667 321.192 56.9 322.592 56.9H342.092C342.826 56.9 343.459 57.1667 343.992 57.7C344.526 58.1667 344.792 58.7333 344.792 59.4C344.792 61.2667 343.792 63.7667 341.792 66.9C339.792 70.0333 336.592 72.8333 332.192 75.3C327.859 77.7667 322.292 79 315.492 79ZM353.899 78C353.166 78 352.533 77.7333 351.999 77.2C351.466 76.6667 351.199 76.0333 351.199 75.3V9.7C351.199 8.96667 351.466 8.33333 351.999 7.8C352.533 7.26666 353.166 7 353.899 7H371.399C372.133 7 372.766 7.26666 373.299 7.8C373.833 8.33333 374.099 8.96667 374.099 9.7V42.1L382.899 27.7C383.566 26.5667 384.533 26 385.799 26H405.999C406.666 26 407.233 26.2333 407.699 26.7C408.166 27.1667 408.399 27.7333 408.399 28.4C408.399 28.8667 408.233 29.3667 407.899 29.9L394.199 49.4L410.399 74.3C410.666 74.7 410.799 75.1333 410.799 75.6C410.799 76.2667 410.566 76.8333 410.099 77.3C409.633 77.7667 409.066 78 408.399 78H387.399C386.066 78 385.033 77.4333 384.299 76.3L374.099 59.3V75.3C374.099 76.0333 373.833 76.6667 373.299 77.2C372.766 77.7333 372.133 78 371.399 78H353.899ZM450.612 79C446.878 79 443.512 78.3 440.512 76.9C437.578 75.5 435.278 73.6 433.612 71.2C432.012 68.8 431.212 66.1 431.212 63.1C431.212 54.1 438.512 48.3333 453.112 45.8L463.712 44.1V44C463.712 42.0667 463.545 40.7667 463.212 40.1C462.878 39.3667 462.045 39 460.712 39C459.978 39 459.345 39.1333 458.812 39.4C458.278 39.6667 457.712 40.0667 457.112 40.6C456.512 41.1333 455.978 41.5333 455.512 41.8C455.112 42.0667 454.545 42.2 453.812 42.2H436.812C436.212 42.2 435.678 42.0333 435.212 41.7C434.812 41.3 434.612 40.8 434.612 40.2C434.612 38.2667 435.545 36.1 437.412 33.7C439.345 31.3 442.278 29.2667 446.212 27.6C450.212 25.8667 455.112 25 460.912 25C469.845 25 476.545 26.8667 481.012 30.6C485.478 34.3333 487.712 39.6667 487.712 46.6V75.3C487.712 76.0333 487.445 76.6667 486.912 77.2C486.378 77.7333 485.745 78 485.012 78H467.512C466.778 78 466.145 77.7333 465.612 77.2C465.078 76.6667 464.812 76.0333 464.812 75.3V72.5C463.345 74.5 461.378 76.1 458.912 77.3C456.445 78.4333 453.678 79 450.612 79ZM457.512 64.2C459.512 64.2 461.078 63.5667 462.212 62.3C463.412 61.0333 464.012 59.1 464.012 56.5V56.4L458.112 57.7C455.178 58.3667 453.712 59.6 453.712 61.4C453.712 62.2 454.045 62.8667 454.712 63.4C455.378 63.9333 456.312 64.2 457.512 64.2ZM498.919 78C498.185 78 497.552 77.7333 497.019 77.2C496.485 76.6667 496.219 76.0333 496.219 75.3V28.7C496.219 27.9667 496.485 27.3333 497.019 26.8C497.552 26.2667 498.185 26 498.919 26H516.419C517.152 26 517.785 26.2667 518.319 26.8C518.852 27.3333 519.119 27.9667 519.119 28.7V32C520.852 29.9333 523.185 28.2667 526.119 27C529.119 25.6667 532.319 25 535.719 25C539.252 25 542.485 25.8333 545.419 27.5C548.352 29.1 550.685 31.6 552.419 35C554.219 38.4 555.119 42.6333 555.119 47.7V75.3C555.119 76.0333 554.852 76.6667 554.319 77.2C553.785 77.7333 553.152 78 552.419 78H533.319C532.585 78 531.952 77.7333 531.419 77.2C530.885 76.6667 530.619 76.0333 530.619 75.3V48.4C530.619 46.6 530.185 45.2333 529.319 44.3C528.452 43.3667 527.219 42.9 525.619 42.9C524.019 42.9 522.785 43.3667 521.919 44.3C521.052 45.2333 520.619 46.6 520.619 48.4V75.3C520.619 76.0333 520.352 76.6667 519.819 77.2C519.285 77.7333 518.652 78 517.919 78H498.919ZM583.502 79C577.302 79 572.302 77.1333 568.502 73.4C564.702 69.6667 562.635 63.8333 562.302 55.9L562.202 51.9L562.302 48C562.568 40.4667 564.635 34.7667 568.502 30.9C572.435 26.9667 577.435 25 583.502 25C588.902 25 593.335 26.5667 596.802 29.7V9.7C596.802 8.96667 597.068 8.33333 597.602 7.8C598.135 7.26666 598.768 7 599.502 7H618.002C618.735 7 619.368 7.26666 619.902 7.8C620.435 8.33333 620.702 8.96667 620.702 9.7V75.3C620.702 76.0333 620.435 76.6667 619.902 77.2C619.368 77.7333 618.735 78 618.002 78H601.002C600.268 78 599.635 77.7333 599.102 77.2C598.568 76.6667 598.302 76.0333 598.302 75.3V73C594.768 77 589.835 79 583.502 79ZM591.802 61.1C593.535 61.1 594.768 60.6333 595.502 59.7C596.235 58.7 596.668 57.2333 596.802 55.3C596.935 53.3 597.002 52.0667 597.002 51.6C597.002 51.1333 596.935 49.9 596.802 47.9C596.668 46.2333 596.202 45 595.402 44.2C594.668 43.3333 593.468 42.9 591.802 42.9C590.068 42.9 588.835 43.3667 588.102 44.3C587.435 45.2333 587.002 46.7 586.802 48.7C586.735 49.3667 586.702 50.4667 586.702 52C586.702 53.5333 586.735 54.6333 586.802 55.3C587.002 57.3 587.435 58.7667 588.102 59.7C588.835 60.6333 590.068 61.1 591.802 61.1ZM188.2 154C187.467 154 186.833 153.733 186.3 153.2C185.767 152.667 185.5 152.033 185.5 151.3V86.7C185.5 85.9667 185.767 85.3333 186.3 84.8C186.833 84.2667 187.467 84 188.2 84H204C205.867 84 207.3 84.9 208.3 86.7L222.8 110.7L237.3 86.7C238.3 84.9 239.733 84 241.6 84H257.4C258.133 84 258.767 84.2667 259.3 84.8C259.833 85.3333 260.1 85.9667 260.1 86.7V151.3C260.1 152.033 259.833 152.667 259.3 153.2C258.767 153.733 258.133 154 257.4 154H239.3C238.567 154 237.933 153.733 237.4 153.2C236.867 152.667 236.6 152.033 236.6 151.3V123.9L230 134.7C229.533 135.433 229 136.033 228.4 136.5C227.867 136.967 227.167 137.2 226.3 137.2H219.3C218.433 137.2 217.7 136.967 217.1 136.5C216.567 136.033 216.067 135.433 215.6 134.7L209 123.9V151.3C209 152.033 208.733 152.667 208.2 153.2C207.667 153.733 207.033 154 206.3 154H188.2ZM297.745 155C279.411 155 269.745 147.567 268.745 132.7C268.678 131.7 268.645 130.133 268.645 128C268.645 125.867 268.678 124.3 268.745 123.3C269.211 116.033 271.978 110.5 277.045 106.7C282.111 102.9 289.011 101 297.745 101C306.478 101 313.378 102.9 318.445 106.7C323.511 110.5 326.278 116.033 326.745 123.3C326.878 125.3 326.945 126.867 326.945 128C326.945 129.133 326.878 130.7 326.745 132.7C325.745 147.567 316.078 155 297.745 155ZM297.745 139C299.545 139 300.711 138.533 301.245 137.6C301.778 136.6 302.111 134.8 302.245 132.2C302.311 131.533 302.345 130.133 302.345 128C302.345 125.867 302.311 124.467 302.245 123.8C302.045 121.267 301.678 119.5 301.145 118.5C300.611 117.5 299.478 117 297.745 117C296.011 117 294.878 117.5 294.345 118.5C293.811 119.5 293.445 121.267 293.245 123.8L293.145 128L293.245 132.2C293.378 134.8 293.711 136.6 294.245 137.6C294.778 138.533 295.945 139 297.745 139ZM337.005 154C336.271 154 335.638 153.733 335.105 153.2C334.571 152.667 334.305 152.033 334.305 151.3V104.7C334.305 103.967 334.571 103.333 335.105 102.8C335.638 102.267 336.271 102 337.005 102H354.505C355.238 102 355.871 102.267 356.405 102.8C356.938 103.333 357.205 103.967 357.205 104.7V108.2C359.405 106.267 361.838 104.767 364.505 103.7C367.171 102.567 369.938 102 372.805 102H377.605C378.338 102 378.971 102.267 379.505 102.8C380.038 103.333 380.305 103.967 380.305 104.7V120.3C380.305 121.033 380.038 121.667 379.505 122.2C378.971 122.733 378.338 123 377.605 123H364.705C360.705 123 358.705 125 358.705 129V151.3C358.705 152.033 358.438 152.667 357.905 153.2C357.371 153.733 356.738 154 356.005 154H337.005ZM418.263 154C410.396 154 404.263 152.367 399.863 149.1C395.463 145.767 393.263 140.233 393.263 132.5V119.5H385.363C384.629 119.5 383.996 119.233 383.463 118.7C382.929 118.167 382.663 117.533 382.663 116.8V104.7C382.663 103.967 382.929 103.333 383.463 102.8C383.996 102.267 384.629 102 385.363 102H393.263V85.7C393.263 84.9667 393.529 84.3333 394.062 83.8C394.596 83.2667 395.229 83 395.963 83H413.463C414.196 83 414.829 83.2667 415.363 83.8C415.896 84.3333 416.163 84.9667 416.163 85.7V102H428.763C429.496 102 430.129 102.267 430.663 102.8C431.196 103.333 431.463 103.967 431.463 104.7V116.8C431.463 117.533 431.196 118.167 430.663 118.7C430.129 119.233 429.496 119.5 428.763 119.5H416.163V130.5C416.163 133.833 417.596 135.5 420.463 135.5H429.563C430.296 135.5 430.929 135.767 431.463 136.3C431.996 136.833 432.263 137.467 432.263 138.2V151.3C432.263 152.033 431.996 152.667 431.463 153.2C430.929 153.733 430.296 154 429.563 154H418.263ZM449.585 173C448.985 173 448.452 172.8 447.985 172.4C447.585 172 447.385 171.5 447.385 170.9C447.385 170.833 447.385 170.7 447.385 170.5C447.318 170.3 447.352 170.1 447.485 169.9L455.485 150.7L436.185 105.1C436.118 104.9 436.085 104.667 436.085 104.4C436.218 103.733 436.518 103.167 436.985 102.7C437.452 102.233 437.985 102 438.585 102H455.485C457.018 102 458.085 102.8 458.685 104.4L466.885 127.2L475.385 104.4C476.052 102.8 477.185 102 478.785 102H495.485C496.085 102 496.618 102.233 497.085 102.7C497.552 103.1 497.785 103.567 497.785 104.1C497.785 104.5 497.752 104.833 497.685 105.1L469.485 170.6C468.818 172.2 467.652 173 465.985 173H449.585Z" fill="#44475A"/>
<path d="M166.458 75.1042H161.146C160.438 75.1042 159.729 75.1042 159.021 75.1042C149.104 75.1042 143.083 73.3334 139.188 72.2709C140.958 66.25 145.917 54.9167 152.646 46.0625L156.188 41.4583L150.521 40.3958C146.979 40.0417 143.792 39.6875 140.25 39.6875C132.104 39.6875 123.958 40.3958 119.354 41.8125C119 37.2083 116.875 28.3542 116.875 18.4375V14.8958H113.333C104.479 14.8958 91.0209 24.8125 85.3543 29.0625C79.3334 23.3958 65.5209 11 57.0209 11L56.6668 11.3542H53.1251V14.8958C53.1251 25.875 51.3543 35.0833 50.2918 39.6875C44.9793 39.3333 34.3543 39.6875 22.6668 37.2083L17.7084 36.1458L18.4168 41.1042C20.8959 56.3333 26.2084 67.3125 29.7501 72.9792C24.0834 74.75 17.0001 79 7.08342 86.4375L3.54175 89.625L7.43758 92.4584C13.1042 96.3542 17.0001 99.1875 20.1876 101.313C23.7293 103.438 23.7293 104.854 26.5626 107.333C18.7709 114.417 12.3959 118.313 12.0418 118.313L7.43758 121.146L12.3959 124.333L28.3334 133.542C27.9793 135.667 26.9168 139.208 25.8543 147.354L24.7918 153.021C24.7918 153.021 46.0418 149.479 56.6668 142.396H113.333C116.521 143.813 127.5 153.021 137.417 153.021H141.667L140.604 148.771C139.188 142.75 138.479 139.208 138.125 137.083C143.083 133.896 157.25 125.042 160.792 117.604L162.917 114.063L159.021 113C155.125 111.938 149.813 109.458 146.979 107.333C151.938 102.729 159.729 92.8125 164.688 80.4167L166.458 75.1042Z" fill="#81D4FA"/>
<path d="M123.958 99.1667C120.201 99.1667 116.598 100.659 113.941 103.316C111.284 105.973 109.792 109.576 109.792 113.333C109.792 117.091 111.284 120.694 113.941 123.351C116.598 126.007 120.201 127.5 123.958 127.5C127.716 127.5 131.319 126.007 133.976 123.351C136.632 120.694 138.125 117.091 138.125 113.333C138.125 109.576 136.632 105.973 133.976 103.316C131.319 100.659 127.716 99.1667 123.958 99.1667ZM46.0417 99.1667C42.2844 99.1667 38.6811 100.659 36.0243 103.316C33.3676 105.973 31.875 109.576 31.875 113.333C31.875 117.091 33.3676 120.694 36.0243 123.351C38.6811 126.007 42.2844 127.5 46.0417 127.5C49.7989 127.5 53.4022 126.007 56.059 123.351C58.7158 120.694 60.2083 117.091 60.2083 113.333C60.2083 109.576 58.7158 105.973 56.059 103.316C53.4022 100.659 49.7989 99.1667 46.0417 99.1667Z" fill="#BCAAA4"/>
<path d="M85.0001 38.9583C63.3959 38.9583 46.0417 58.0833 46.0417 85.7084V119.354C46.0417 147.333 63.3959 166.458 85.0001 166.458C106.604 166.458 123.958 147.333 123.958 119.708V86.0625C123.958 58.0833 106.604 38.9583 85.0001 38.9583Z" fill="#D7CCC8"/>
<path d="M88.8959 131.042H70.1251H67.2917V134.229C67.2917 138.479 69.0626 143.083 72.9584 143.792C73.3126 148.042 75.4376 152.292 79.6876 152.292C83.9376 152.292 86.0626 148.042 86.7709 143.792C89.2501 143.083 92.0834 140.604 92.0834 134.229V131.042H88.8959Z" fill="#43A047"/>
<path d="M60.2084 138.125C58.7918 138.125 57.3751 137.063 57.0209 135.646C56.3126 133.875 57.3751 131.75 59.1459 131.042C59.5001 131.042 70.4793 127.146 85.0001 127.146C99.5209 127.146 110.5 130.687 110.854 131.042C112.625 131.75 113.688 133.521 112.979 135.646C112.271 137.417 110.5 138.479 108.375 137.771C108.375 137.771 98.1043 134.583 84.6459 134.583C71.1876 134.583 60.9168 137.771 60.9168 137.771C60.9168 138.125 60.5626 138.125 60.2084 138.125Z" fill="#8D6E63"/>
<path d="M77.9167 92.0833V108.021C77.9167 111.917 78.2709 123.958 85.0001 123.958C91.7292 123.958 92.0834 111.917 92.0834 108.021V92.0833H77.9167Z" fill="#EFEBE9"/>
<path d="M100.938 74.375C96.7106 74.375 92.6568 76.0541 89.668 79.043C86.6791 82.0318 85 86.0856 85 90.3125C85 94.5394 86.6791 98.5932 89.668 101.582C92.6568 104.571 96.7106 106.25 100.938 106.25C105.164 106.25 109.218 104.571 112.207 101.582C115.196 98.5932 116.875 94.5394 116.875 90.3125C116.875 86.0856 115.196 82.0318 112.207 79.043C109.218 76.0541 105.164 74.375 100.938 74.375V74.375Z" fill="#FAFAFA"/>
<path d="M69.0625 74.375C64.8356 74.375 60.7818 76.0541 57.793 79.043C54.8041 82.0318 53.125 86.0856 53.125 90.3125C53.125 94.5394 54.8041 98.5932 57.793 101.582C60.7818 104.571 64.8356 106.25 69.0625 106.25C73.2894 106.25 77.3432 104.571 80.332 101.582C83.3209 98.5932 85 94.5394 85 90.3125C85 86.0856 83.3209 82.0318 80.332 79.043C77.3432 76.0541 73.2894 74.375 69.0625 74.375V74.375Z" fill="#FAFAFA"/>
<path d="M102.708 85C101.769 85 100.868 85.3731 100.204 86.0373C99.5398 86.7015 99.1667 87.6024 99.1667 88.5417C99.1667 89.481 99.5398 90.3818 100.204 91.046C100.868 91.7102 101.769 92.0833 102.708 92.0833C103.648 92.0833 104.548 91.7102 105.213 91.046C105.877 90.3818 106.25 89.481 106.25 88.5417C106.25 87.6024 105.877 86.7015 105.213 86.0373C104.548 85.3731 103.648 85 102.708 85ZM67.2917 88.5417C66.3524 88.5417 65.4515 88.9148 64.7873 89.579C64.1231 90.2432 63.75 91.144 63.75 92.0833C63.75 93.0226 64.1231 93.9235 64.7873 94.5877C65.4515 95.2519 66.3524 95.625 67.2917 95.625C68.231 95.625 69.1318 95.2519 69.796 94.5877C70.4602 93.9235 70.8333 93.0226 70.8333 92.0833C70.8333 91.144 70.4602 90.2432 69.796 89.579C69.1318 88.9148 68.231 88.5417 67.2917 88.5417Z" fill="#212121"/>
<path d="M85 77.9167C80.0417 77.9167 75.7917 76.8542 71.8958 75.7917C70.125 75.4375 68 74.7292 66.5833 74.7292C60.9167 74.0209 57.375 74.7292 57.375 74.7292C55.6042 75.0834 53.4792 74.0209 53.125 72.25C52.7708 70.4792 53.8333 68.7084 55.6042 68C55.9583 68 60.5625 66.9375 67.6458 68C69.4167 68.3542 71.5417 68.7084 73.6667 69.4167C77.2083 70.4792 80.75 71.1875 84.6458 71.1875C88.5417 71.1875 92.0833 70.125 95.625 69.4167C97.75 68.7084 99.875 68.3542 101.646 68C108.729 66.9375 113.333 68 113.687 68C115.458 68.3542 116.875 70.125 116.167 72.25C115.812 74.0209 113.687 75.0834 111.917 74.7292C111.917 74.7292 108.375 74.0209 102.708 74.7292C101.292 75.0834 99.5208 75.4375 97.3958 75.7917C94.2083 76.8542 89.9583 77.9167 85 77.9167Z" fill="#64B5F6"/>
</svg>
