<svg width="60" height="60" viewBox="0 0 60 60" fill="none" xmlns="http://www.w3.org/2000/svg">
<path d="M58.75 23.75H56.875C56.625 23.75 56.375 23.75 56.125 23.75C52.625 23.75 50.5 23.125 49.125 22.75C49.75 20.625 51.5 16.625 53.875 13.5L55.125 11.875L53.125 11.5C51.875 11.375 50.75 11.25 49.5 11.25C46.625 11.25 43.75 11.5 42.125 12C42 10.375 41.25 7.25 41.25 3.75V2.5H40C36.875 2.5 32.125 6 30.125 7.5C28 5.5 23.125 1.125 20.125 1.125L20 1.25H18.75V2.5C18.75 6.375 18.125 9.625 17.75 11.25C15.875 11.125 12.125 11.25 8 10.375L6.25 10L6.5 11.75C7.375 17.125 9.25 21 10.5 23C8.5 23.625 6 25.125 2.5 27.75L1.25 28.875L2.625 29.875C4.625 31.25 6 32.25 7.125 33C8.375 33.75 8.375 34.25 9.375 35.125C6.625 37.625 4.375 39 4.25 39L2.625 40L4.375 41.125L10 44.375C9.875 45.125 9.5 46.375 9.125 49.25L8.75 51.25C8.75 51.25 16.25 50 20 47.5H40C41.125 48 45 51.25 48.5 51.25H50L49.625 49.75C49.125 47.625 48.875 46.375 48.75 45.625C50.5 44.5 55.5 41.375 56.75 38.75L57.5 37.5L56.125 37.125C54.75 36.75 52.875 35.875 51.875 35.125C53.625 33.5 56.375 30 58.125 25.625L58.75 23.75Z" fill="#81D4FA"/>
<path d="M43.75 35C42.4239 35 41.1521 35.5268 40.2145 36.4645C39.2768 37.4021 38.75 38.6739 38.75 40C38.75 41.3261 39.2768 42.5979 40.2145 43.5355C41.1521 44.4732 42.4239 45 43.75 45C45.0761 45 46.3479 44.4732 47.2855 43.5355C48.2232 42.5979 48.75 41.3261 48.75 40C48.75 38.6739 48.2232 37.4021 47.2855 36.4645C46.3479 35.5268 45.0761 35 43.75 35ZM16.25 35C14.9239 35 13.6521 35.5268 12.7145 36.4645C11.7768 37.4021 11.25 38.6739 11.25 40C11.25 41.3261 11.7768 42.5979 12.7145 43.5355C13.6521 44.4732 14.9239 45 16.25 45C17.5761 45 18.8479 44.4732 19.7855 43.5355C20.7232 42.5979 21.25 41.3261 21.25 40C21.25 38.6739 20.7232 37.4021 19.7855 36.4645C18.8479 35.5268 17.5761 35 16.25 35Z" fill="#BCAAA4"/>
<path d="M30 13.75C22.375 13.75 16.25 20.5 16.25 30.25V42.125C16.25 52 22.375 58.75 30 58.75C37.625 58.75 43.75 52 43.75 42.25V30.375C43.75 20.5 37.625 13.75 30 13.75Z" fill="#D7CCC8"/>
<path d="M31.375 46.25H24.75H23.75V47.375C23.75 48.875 24.375 50.5 25.75 50.75C25.875 52.25 26.625 53.75 28.125 53.75C29.625 53.75 30.375 52.25 30.625 50.75C31.5 50.5 32.5 49.625 32.5 47.375V46.25H31.375Z" fill="#43A047"/>
<path d="M21.25 48.75C20.75 48.75 20.25 48.375 20.125 47.875C19.875 47.25 20.25 46.5 20.875 46.25C21 46.25 24.875 44.875 30 44.875C35.125 44.875 39 46.125 39.125 46.25C39.75 46.5 40.125 47.125 39.875 47.875C39.625 48.5 39 48.875 38.25 48.625C38.25 48.625 34.625 47.5 29.875 47.5C25.125 47.5 21.5 48.625 21.5 48.625C21.5 48.75 21.375 48.75 21.25 48.75Z" fill="#8D6E63"/>
<path d="M27.5 32.5V38.125C27.5 39.5 27.625 43.75 30 43.75C32.375 43.75 32.5 39.5 32.5 38.125V32.5H27.5Z" fill="#EFEBE9"/>
<path d="M35.625 26.25C34.1332 26.25 32.7024 26.8426 31.6475 27.8975C30.5926 28.9524 30 30.3832 30 31.875C30 33.3668 30.5926 34.7976 31.6475 35.8525C32.7024 36.9074 34.1332 37.5 35.625 37.5C37.1168 37.5 38.5476 36.9074 39.6025 35.8525C40.6574 34.7976 41.25 33.3668 41.25 31.875C41.25 30.3832 40.6574 28.9524 39.6025 27.8975C38.5476 26.8426 37.1168 26.25 35.625 26.25Z" fill="#FAFAFA"/>
<path d="M24.375 26.25C22.8832 26.25 21.4524 26.8426 20.3975 27.8975C19.3426 28.9524 18.75 30.3832 18.75 31.875C18.75 33.3668 19.3426 34.7976 20.3975 35.8525C21.4524 36.9074 22.8832 37.5 24.375 37.5C25.8668 37.5 27.2976 36.9074 28.3525 35.8525C29.4074 34.7976 30 33.3668 30 31.875C30 30.3832 29.4074 28.9524 28.3525 27.8975C27.2976 26.8426 25.8668 26.25 24.375 26.25Z" fill="#FAFAFA"/>
<path d="M36.25 30C35.9185 30 35.6005 30.1317 35.3661 30.3661C35.1317 30.6005 35 30.9185 35 31.25C35 31.5815 35.1317 31.8995 35.3661 32.1339C35.6005 32.3683 35.9185 32.5 36.25 32.5C36.5815 32.5 36.8995 32.3683 37.1339 32.1339C37.3683 31.8995 37.5 31.5815 37.5 31.25C37.5 30.9185 37.3683 30.6005 37.1339 30.3661C36.8995 30.1317 36.5815 30 36.25 30ZM23.75 31.25C23.4185 31.25 23.1005 31.3817 22.8661 31.6161C22.6317 31.8505 22.5 32.1685 22.5 32.5C22.5 32.8315 22.6317 33.1495 22.8661 33.3839C23.1005 33.6183 23.4185 33.75 23.75 33.75C24.0815 33.75 24.3995 33.6183 24.6339 33.3839C24.8683 33.1495 25 32.8315 25 32.5C25 32.1685 24.8683 31.8505 24.6339 31.6161C24.3995 31.3817 24.0815 31.25 23.75 31.25Z" fill="#212121"/>
<path d="M30 27.5C28.25 27.5 26.75 27.125 25.375 26.75C24.75 26.625 24 26.375 23.5 26.375C21.5 26.125 20.25 26.375 20.25 26.375C19.625 26.5 18.875 26.125 18.75 25.5C18.625 24.875 19 24.25 19.625 24C19.75 24 21.375 23.625 23.875 24C24.5 24.125 25.25 24.25 26 24.5C27.25 24.875 28.5 25.125 29.875 25.125C31.25 25.125 32.5 24.75 33.75 24.5C34.5 24.25 35.25 24.125 35.875 24C38.375 23.625 40 24 40.125 24C40.75 24.125 41.25 24.75 41 25.5C40.875 26.125 40.125 26.5 39.5 26.375C39.5 26.375 38.25 26.125 36.25 26.375C35.75 26.5 35.125 26.625 34.375 26.75C33.25 27.125 31.75 27.5 30 27.5Z" fill="#64B5F6"/>
</svg>
